<?xml version="1.0" standalone="no"?>
<!DOCTYPE svg PUBLIC "-//W3C//DTD SVG 20010904//EN"
 "http://www.w3.org/TR/2001/REC-SVG-20010904/DTD/svg10.dtd">
<svg version="1.0" xmlns="http://www.w3.org/2000/svg"
 width="500.000000pt" height="500.000000pt" viewBox="0 0 500.000000 500.000000"
 preserveAspectRatio="xMidYMid meet">

<g transform="translate(0.000000,500.000000) scale(0.100000,-0.100000)"
fill="#000000" stroke="none">
<path d="M2935 3510 c19 -21 17 -23 -205 -245 l-225 -225 -95 95 -95 95 -169
-169 c-112 -113 -164 -171 -156 -176 8 -5 66 46 166 146 l154 154 82 -81 c46
-44 91 -86 101 -94 17 -12 39 8 252 220 224 224 235 233 253 217 28 -26 32
-21 32 33 l0 50 -57 0 c-56 0 -56 0 -38 -20z"/>
<path d="M2980 2775 c0 -309 2 -355 15 -355 13 0 15 46 15 355 0 309 -2 355
-15 355 -13 0 -15 -46 -15 -355z"/>
<path d="M2490 2660 c0 -207 2 -240 15 -240 13 0 15 33 15 240 0 207 -2 240
-15 240 -13 0 -15 -33 -15 -240z"/>
<path d="M1987 2704 c-4 -4 -7 -70 -7 -146 0 -132 1 -138 20 -138 20 0 20 5
18 142 -3 132 -10 163 -31 142z"/>
<path d="M1990 1960 c0 -123 1 -130 20 -130 18 0 20 7 20 55 l0 55 90 0 c83 0
90 1 90 20 0 19 -7 20 -90 20 l-90 0 0 35 0 35 110 0 c103 0 110 1 110 20 0
19 -7 20 -130 20 l-130 0 0 -130z"/>
<path d="M2370 1960 l0 -130 105 0 c100 0 107 1 132 26 20 20 24 31 19 57 -4
18 -7 39 -7 47 0 8 3 29 7 47 5 26 1 37 -19 57 -25 25 -32 26 -132 26 l-105 0
0 -130z m217 74 c14 -36 -10 -49 -96 -52 l-81 -3 0 36 0 35 85 0 c70 0 87 -3
92 -16z m-2 -129 l0 -30 -87 -3 -88 -3 0 36 0 36 88 -3 87 -3 0 -30z"/>
<path d="M2760 1960 c0 -109 2 -130 15 -130 10 0 15 10 15 34 l0 34 91 4 c85
4 94 6 115 32 27 31 31 74 9 115 -19 38 -30 41 -146 41 l-99 0 0 -130z m214
74 c10 -26 7 -69 -6 -82 -7 -7 -44 -12 -95 -12 l-83 0 0 55 0 55 89 0 c72 0
90 -3 95 -16z"/>
<path d="M1115 1595 l0 -65 30 1 c17 0 24 3 18 6 -8 3 -13 25 -13 58 0 33 5
55 13 58 6 3 -1 6 -18 6 l-30 1 0 -65z"/>
<path d="M1288 1653 c16 -6 16 -95 0 -111 -9 -9 -5 -12 17 -11 17 0 24 3 18 6
-8 3 -13 22 -13 46 l0 42 45 -50 44 -50 1 62 c0 39 4 63 13 66 6 3 -1 5 -18 5
-16 0 -24 -2 -17 -5 6 -2 12 -21 12 -41 l0 -37 -36 43 c-23 27 -44 42 -57 41
-12 0 -16 -3 -9 -6z"/>
<path d="M1559 1595 c14 -36 29 -65 33 -65 3 0 14 24 24 53 9 28 21 58 27 65
7 9 3 12 -14 11 -13 0 -19 -3 -13 -5 9 -4 9 -14 1 -39 -6 -19 -13 -35 -16 -35
-10 0 -31 62 -25 71 3 5 -6 9 -19 9 l-25 0 27 -65z"/>
<path d="M1768 1648 c7 -7 12 -30 12 -53 0 -23 -5 -46 -12 -53 -9 -9 1 -12 45
-12 44 0 57 3 57 15 0 8 -4 15 -10 15 -5 0 -10 -5 -10 -11 0 -6 -10 -9 -22 -7
-15 2 -24 11 -26 27 -3 20 0 23 17 18 17 -4 21 -1 21 16 0 17 -2 19 -9 8 -11
-18 -31 -5 -31 20 0 22 29 26 48 7 9 -9 12 -8 12 5 0 14 -10 17 -52 17 -40 0
-49 -3 -40 -12z"/>
<path d="M1987 1653 c-18 -17 -6 -53 23 -68 32 -17 41 -45 14 -45 -9 0 -23 8
-30 18 -12 16 -13 15 -14 -5 0 -19 5 -23 33 -23 64 0 79 50 22 77 -19 9 -35
21 -35 25 0 14 33 23 38 10 5 -17 22 -15 22 3 0 10 -10 15 -33 15 -19 0 -37
-3 -40 -7z"/>
<path d="M2180 1638 c1 -21 2 -22 14 -5 22 29 28 19 24 -43 l-3 -60 30 0 c22
0 26 3 17 12 -16 16 -16 108 -1 108 7 0 18 -8 25 -17 12 -17 13 -16 14 5 0 20
-4 22 -60 22 -56 0 -60 -2 -60 -22z"/>
<path d="M2418 1648 c7 -7 12 -30 12 -53 0 -23 -5 -46 -12 -53 -9 -9 -4 -12
22 -12 26 0 31 3 22 12 -7 7 -12 30 -12 53 0 23 5 46 12 53 9 9 4 12 -22 12
-26 0 -31 -3 -22 -12z"/>
<path d="M2588 1653 c7 -3 12 -25 12 -58 0 -33 -5 -55 -12 -58 -7 -3 1 -5 17
-5 17 0 24 2 18 5 -8 3 -13 22 -12 46 l1 42 20 -47 c11 -27 23 -48 27 -48 3 0
16 22 28 48 l21 47 1 -42 c1 -24 -4 -43 -11 -46 -7 -3 1 -6 17 -6 l30 -1 0 65
c0 55 -3 65 -17 65 -11 0 -25 -18 -39 -47 l-22 -48 -20 48 c-17 39 -25 47 -46
46 -14 0 -20 -3 -13 -6z"/>
<path d="M2868 1653 c7 -3 12 -25 12 -58 0 -33 -5 -55 -12 -58 -7 -3 13 -6 45
-6 47 -1 57 2 57 16 0 13 -3 14 -12 5 -22 -22 -48 -14 -48 14 0 21 4 25 20 21
15 -4 20 0 20 16 0 16 -3 18 -12 9 -19 -19 -28 -14 -28 13 0 18 5 25 20 25 11
0 20 -4 20 -10 0 -5 5 -10 10 -10 6 0 10 7 10 15 0 12 -13 15 -57 14 -32 0
-52 -3 -45 -6z"/>
<path d="M3088 1653 c7 -3 12 -25 12 -58 0 -33 -5 -55 -12 -58 -7 -3 1 -5 17
-5 17 0 24 2 18 5 -8 3 -13 22 -13 46 l1 42 44 -50 45 -50 0 62 c0 39 4 63 13
66 6 3 -1 6 -18 6 -20 0 -26 -2 -17 -8 8 -5 12 -21 10 -40 l-3 -33 -30 41
c-22 29 -37 40 -55 40 -14 0 -19 -3 -12 -6z"/>
<path d="M3330 1645 c0 -8 5 -15 10 -15 6 0 10 5 10 10 0 6 7 10 15 10 19 0
22 -106 3 -113 -7 -3 5 -5 27 -5 22 0 34 2 28 5 -8 3 -13 25 -13 59 0 55 11
68 29 37 9 -16 10 -16 11 5 0 20 -4 22 -60 22 -47 0 -60 -3 -60 -15z"/>
<path d="M3577 1642 c-35 -38 -9 -112 39 -112 60 0 92 57 60 105 -20 31 -74
34 -99 7z m74 -16 c14 -29 4 -75 -16 -83 -34 -12 -57 43 -39 91 9 24 43 19 55
-8z"/>
<path d="M3809 1644 c-16 -19 -3 -43 32 -61 30 -15 31 -37 2 -41 -16 -2 -23 2
-23 12 0 9 -4 16 -10 16 -5 0 -10 -9 -10 -20 0 -15 7 -20 29 -20 44 0 61 10
61 36 0 16 -9 28 -30 39 -16 9 -30 22 -30 30 0 17 26 20 35 5 4 -6 11 -8 16
-4 16 10 -1 24 -30 24 -16 0 -34 -7 -42 -16z"/>
</g>
</svg>
